<svg height="512" viewBox="0 0 64 64" width="512" xmlns="http://www.w3.org/2000/svg"><path d="m58.63 24.45c-.26-1.5-2.66-2.43-3.17-3.84-.53-1.43.71-3.68-.05-4.98s-3.33-1.36-4.3-2.52-.58-3.69-1.74-4.67-3.58-.14-4.9-.9c-1.3-.76-1.79-3.28-3.22-3.8-1.41-.51-3.41 1.09-4.92.83-1.46-.26-2.79-2.46-4.33-2.46s-2.87 2.2-4.33 2.46c-1.51.26-3.51-1.34-4.92-.83-1.43.52-1.92 3.04-3.22 3.8-1.32.76-3.75-.07-4.9.9s-.77 3.52-1.74 4.67-3.54 1.21-4.3 2.52.48 3.55-.05 4.98c-.51 1.41-2.91 2.34-3.17 3.85-.26 1.46 1.67 3.15 1.67 4.69s-1.93 3.23-1.67 4.7c.26 1.5 2.66 2.43 3.17 3.84.53 1.43-.71 3.68.05 4.98a2.544 2.544 0 0 0 1.09.91c1.08.53 2.53.8 3.21 1.61.97 1.15.58 3.69 1.74 4.67s3.58.14 4.9.9a4.581 4.581 0 0 1 1.39 1.69c.52.89 1.03 1.82 1.83 2.11 1.41.51 3.41-1.09 4.92-.83 1.46.26 2.79 2.46 4.33 2.46s2.87-2.2 4.33-2.46c1.51-.26 3.51 1.34 4.92.83.8-.29 1.31-1.22 1.83-2.11a4.581 4.581 0 0 1 1.39-1.69c1.32-.76 3.75.07 4.9-.9s.77-3.52 1.74-4.67c.68-.81 2.13-1.08 3.21-1.61a2.544 2.544 0 0 0 1.09-.91c.76-1.3-.48-3.55.05-4.98.51-1.41 2.91-2.34 3.17-3.85.26-1.46-1.67-3.15-1.67-4.69s1.93-3.23 1.67-4.7zm-26.63 24.7a20 20 0 1 1 20-20 20.02 20.02 0 0 1 -20 20z" fill="#78b9eb"/><path d="m32 12.51-3.63 11.19h-11.76l9.51 6.9-3.63 11.19 9.51-6.91 9.51 6.91-3.63-11.19 9.51-6.9h-11.76z" fill="#78b9eb"/><g fill="#1a6fb0"><path d="m53 29.15a21 21 0 1 0 -21 21 21.024 21.024 0 0 0 21-21zm-21 19a19 19 0 1 1 19-19 19.021 19.021 0 0 1 -19 19z"/><path d="m48.34 23.387a1 1 0 0 0 -.951-.692h-11.03l-3.408-10.489a1 1 0 0 0 -1.9 0l-3.41 10.494h-11.03a1 1 0 0 0 -.588 1.809l8.923 6.482-3.408 10.486a1 1 0 0 0 1.539 1.117l8.923-6.483 8.923 6.483a1 1 0 0 0 1.539-1.117l-3.408-10.491 8.923-6.486a1 1 0 0 0 .363-1.113zm-11.05 6.413a1 1 0 0 0 -.363 1.117l2.681 8.254-7.02-5.1a1 1 0 0 0 -1.176 0l-7.02 5.1 2.681-8.254a1 1 0 0 0 -.363-1.117l-7.021-5.1h8.678a1 1 0 0 0 .951-.7l2.682-8.249 2.682 8.249a1 1 0 0 0 .951.691h8.678z"/><path d="m62.407 50.242-6.556-6.542a2.67 2.67 0 0 0 .427-.526 4.862 4.862 0 0 0 .2-3.273 4.473 4.473 0 0 1 -.085-1.868 4.435 4.435 0 0 1 1.245-1.34 4.9 4.9 0 0 0 1.976-2.67 4.846 4.846 0 0 0 -.929-3.119 4.483 4.483 0 0 1 -.728-1.749 4.5 4.5 0 0 1 .728-1.75 4.844 4.844 0 0 0 .929-3.118 4.906 4.906 0 0 0 -1.974-2.677 4.427 4.427 0 0 1 -1.24-1.338 4.474 4.474 0 0 1 .085-1.868 4.859 4.859 0 0 0 -.2-3.272 4.882 4.882 0 0 0 -2.756-1.818 4.434 4.434 0 0 1 -1.643-.843 4.454 4.454 0 0 1 -.551-1.772 4.883 4.883 0 0 0 -1.31-3.019 4.881 4.881 0 0 0 -3.2-.77 4.458 4.458 0 0 1 -1.844-.238 4.453 4.453 0 0 1 -1.111-1.467 4.9 4.9 0 0 0 -2.279-2.405 4.839 4.839 0 0 0 -3.248.371 4.438 4.438 0 0 1 -1.835.41 4.393 4.393 0 0 1 -1.525-.981 4.911 4.911 0 0 0 -2.983-1.49 4.911 4.911 0 0 0 -2.983 1.49 4.406 4.406 0 0 1 -1.526.986 4.6 4.6 0 0 1 -1.834-.411 4.841 4.841 0 0 0 -3.248-.375 4.893 4.893 0 0 0 -2.274 2.4 4.44 4.44 0 0 1 -1.112 1.467 4.449 4.449 0 0 1 -1.846.239 4.882 4.882 0 0 0 -3.195.769 4.889 4.889 0 0 0 -1.31 3.021 4.45 4.45 0 0 1 -.55 1.771 4.455 4.455 0 0 1 -1.644.843 4.886 4.886 0 0 0 -2.756 1.817 4.862 4.862 0 0 0 -.2 3.273 4.473 4.473 0 0 1 .078 1.872 4.429 4.429 0 0 1 -1.24 1.339 4.9 4.9 0 0 0 -1.977 2.671 4.839 4.839 0 0 0 .93 3.118 4.51 4.51 0 0 1 .727 1.75 4.494 4.494 0 0 1 -.727 1.75 4.841 4.841 0 0 0 -.93 3.119 4.9 4.9 0 0 0 1.976 2.67 4.435 4.435 0 0 1 1.241 1.339 4.473 4.473 0 0 1 -.081 1.872 4.859 4.859 0 0 0 .2 3.272 2.675 2.675 0 0 0 .428.526l-6.554 6.544a1 1 0 0 0 .444 1.673l7.229 1.97 1.969 7.227a1 1 0 0 0 .708.7.981.981 0 0 0 .257.034 1 1 0 0 0 .707-.293l7.693-7.69a3.817 3.817 0 0 0 1.809 1.637 4.86 4.86 0 0 0 3.249-.371 4.418 4.418 0 0 1 1.834-.41 4.393 4.393 0 0 1 1.525.985 4.917 4.917 0 0 0 2.983 1.486 4.917 4.917 0 0 0 2.983-1.49 4.393 4.393 0 0 1 1.525-.985 4.418 4.418 0 0 1 1.834.41 4.846 4.846 0 0 0 3.249.371 3.807 3.807 0 0 0 1.809-1.634l7.7 7.7a1 1 0 0 0 .707.293.981.981 0 0 0 .257-.034 1 1 0 0 0 .708-.7l1.969-7.227 7.229-1.97a1 1 0 0 0 .444-1.673zm-49.695 8.682-1.667-6.116a1 1 0 0 0 -.7-.7l-6.118-1.67 5.682-5.673c.191.076.383.151.569.22a4.434 4.434 0 0 1 1.643.844 4.454 4.454 0 0 1 .551 1.772 4.889 4.889 0 0 0 1.31 3.02 4.885 4.885 0 0 0 3.2.769 4.429 4.429 0 0 1 1.845.238 1.855 1.855 0 0 1 .49.495zm29.429-6.84c-.4.68-.81 1.382-1.236 1.537a3.726 3.726 0 0 1 -1.9-.378 5.713 5.713 0 0 0 -2.847-.5 5.584 5.584 0 0 0 -2.452 1.414c-.612.506-1.245 1.028-1.71 1.028s-1.1-.522-1.71-1.028a5.584 5.584 0 0 0 -2.452-1.414 3.125 3.125 0 0 0 -.534-.043 7.111 7.111 0 0 0 -2.312.54 3.791 3.791 0 0 1 -1.9.378c-.426-.155-.838-.858-1.237-1.538a5.626 5.626 0 0 0 -1.825-2.18 5.633 5.633 0 0 0 -2.826-.51 3.763 3.763 0 0 1 -1.927-.3 3.758 3.758 0 0 1 -.631-1.853 5.637 5.637 0 0 0 -.987-2.695 5.63 5.63 0 0 0 -2.478-1.432c-.7-.26-1.5-.555-1.722-.944a3.751 3.751 0 0 1 .04-1.942 5.669 5.669 0 0 0 -.01-2.881 5.584 5.584 0 0 0 -1.826-2.177c-.6-.513-1.223-1.043-1.3-1.494a3.729 3.729 0 0 1 .7-1.787 5.8 5.8 0 0 0 .981-2.735 5.791 5.791 0 0 0 -.987-2.735 3.733 3.733 0 0 1 -.7-1.787c.079-.451.7-.982 1.3-1.494a5.588 5.588 0 0 0 1.826-2.176 5.673 5.673 0 0 0 .01-2.882 3.755 3.755 0 0 1 -.04-1.943c.225-.388 1.02-.683 1.722-.944a5.622 5.622 0 0 0 2.479-1.431 5.65 5.65 0 0 0 .986-2.695 3.762 3.762 0 0 1 .634-1.853 3.759 3.759 0 0 1 1.926-.3 5.643 5.643 0 0 0 2.83-.509 5.6 5.6 0 0 0 1.833-2.185c.4-.68.811-1.382 1.236-1.537a3.733 3.733 0 0 1 1.895.378 5.708 5.708 0 0 0 2.848.495 5.581 5.581 0 0 0 2.452-1.413c.61-.506 1.245-1.029 1.71-1.029s1.1.523 1.71 1.029a5.572 5.572 0 0 0 2.451 1.412 5.646 5.646 0 0 0 2.849-.494 3.7 3.7 0 0 1 1.9-.378c.426.155.838.858 1.237 1.538a5.616 5.616 0 0 0 1.827 2.183 5.632 5.632 0 0 0 2.826.51 3.764 3.764 0 0 1 1.927.3 3.754 3.754 0 0 1 .631 1.852 5.647 5.647 0 0 0 .987 2.695 5.618 5.618 0 0 0 2.478 1.431c.7.261 1.5.556 1.722.945a3.754 3.754 0 0 1 -.04 1.943 5.669 5.669 0 0 0 .01 2.881 5.6 5.6 0 0 0 1.825 2.176c.6.512 1.224 1.042 1.3 1.494a3.733 3.733 0 0 1 -.7 1.787 5.791 5.791 0 0 0 -.987 2.735 5.8 5.8 0 0 0 .987 2.735 3.729 3.729 0 0 1 .7 1.787c-.079.451-.7.981-1.3 1.494a5.584 5.584 0 0 0 -1.826 2.177 5.669 5.669 0 0 0 -.01 2.881 3.751 3.751 0 0 1 .04 1.942c-.225.389-1.02.684-1.722.944a5.633 5.633 0 0 0 -2.479 1.432 5.646 5.646 0 0 0 -.986 2.694 3.763 3.763 0 0 1 -.631 1.854 3.752 3.752 0 0 1 -1.927.3 5.641 5.641 0 0 0 -2.829.508 5.606 5.606 0 0 0 -1.829 2.187zm11.516.021a1 1 0 0 0 -.7.7l-1.667 6.116-6.8-6.8a1.835 1.835 0 0 1 .49-.494 4.441 4.441 0 0 1 1.845-.239 4.879 4.879 0 0 0 3.2-.769 4.889 4.889 0 0 0 1.31-3.021 4.445 4.445 0 0 1 .55-1.771 4.454 4.454 0 0 1 1.644-.844c.186-.069.378-.144.569-.22l5.682 5.673z"/></g></svg>